<svg width="24" height="24" viewBox="0 0 24 24" fill="none" xmlns="http://www.w3.org/2000/svg">
<rect width="24" height="24" fill="white"/>
<path d="M15.4 17.95C14.95 17.9667 14.521 17.9793 14.113 17.988C13.7043 17.996 13.3417 18 13.025 18H12C10.8167 18 9.70833 17.9833 8.675 17.95C7.79167 17.9167 6.92067 17.8707 6.062 17.812C5.204 17.754 4.58333 17.675 4.2 17.575C3.76667 17.4583 3.39167 17.2417 3.075 16.925C2.75833 16.6083 2.54167 16.2333 2.425 15.8C2.325 15.4167 2.246 14.95 2.188 14.4C2.12933 13.85 2.08333 13.325 2.05 12.825C2.01667 12.225 2 11.6167 2 11C2 10.3833 2.01667 9.775 2.05 9.175C2.08333 8.675 2.12933 8.15 2.188 7.6C2.246 7.05 2.325 6.58333 2.425 6.2C2.54167 5.76667 2.75833 5.39167 3.075 5.075C3.39167 4.75833 3.76667 4.54167 4.2 4.425C4.58333 4.325 5.204 4.24567 6.062 4.187C6.92067 4.129 7.79167 4.08333 8.675 4.05C9.70833 4.01667 10.8167 4 12 4C13.1833 4 14.2917 4.01667 15.325 4.05C16.2083 4.08333 17.0793 4.129 17.938 4.187C18.796 4.24567 19.4167 4.325 19.8 4.425C20.2333 4.54167 20.6083 4.75833 20.925 5.075C21.2417 5.39167 21.4583 5.76667 21.575 6.2C21.675 6.58333 21.754 7.05 21.812 7.6C21.8707 8.15 21.9167 8.675 21.95 9.175C21.9833 9.775 22 10.3833 22 11V11.425C21.6833 11.2917 21.3583 11.1877 21.025 11.113C20.6917 11.0377 20.35 11 20 11C18.6167 11 17.4373 11.4873 16.462 12.462C15.4873 13.4373 15 14.6167 15 16C15 16.35 15.0333 16.6873 15.1 17.012C15.1667 17.3373 15.2667 17.65 15.4 17.95ZM10 14L15.2 11L10 8V14ZM19 19V17H17V15H19V13H21V15H23V17H21V19H19Z" fill="#00A27E"/>
</svg>
